<mxfile host="app.diagrams.net" modified="2023-10-16T10:05:24.184Z" agent="Mozilla/5.0 (Windows NT 10.0; Win64; x64) AppleWebKit/537.36 (KHTML, like Gecko) Chrome/117.0.0.0 Safari/537.36" etag="jvCoULeRspPJdxWgsCJh" version="22.0.4" type="device">
  <diagram id="R2lEEEUBdFMjLlhIrx00" name="Page-1">
    <mxGraphModel dx="2875" dy="2209" grid="1" gridSize="10" guides="1" tooltips="1" connect="1" arrows="1" fold="1" page="1" pageScale="1" pageWidth="850" pageHeight="1100" math="0" shadow="0" extFonts="Permanent Marker^https://fonts.googleapis.com/css?family=Permanent+Marker">
      <root>
        <mxCell id="0" />
        <mxCell id="1" parent="0" />
        <mxCell id="qv-WrGeoa5kCR28B-ABI-1" value="asignatura" style="whiteSpace=wrap;html=1;align=center;fillColor=#fff2cc;strokeColor=#d6b656;" parent="1" vertex="1">
          <mxGeometry x="600" y="840" width="100" height="40" as="geometry" />
        </mxCell>
        <mxCell id="qv-WrGeoa5kCR28B-ABI-4" value="profesor" style="whiteSpace=wrap;html=1;align=center;fillColor=#e1d5e7;strokeColor=#9673a6;" parent="1" vertex="1">
          <mxGeometry x="540" y="360" width="100" height="40" as="geometry" />
        </mxCell>
        <mxCell id="qv-WrGeoa5kCR28B-ABI-5" value="aula" style="whiteSpace=wrap;html=1;align=center;fillColor=#dae8fc;strokeColor=#6c8ebf;" parent="1" vertex="1">
          <mxGeometry x="240" y="560" width="100" height="40" as="geometry" />
        </mxCell>
        <mxCell id="qv-WrGeoa5kCR28B-ABI-6" value="horario" style="whiteSpace=wrap;html=1;align=center;fillColor=#f8cecc;strokeColor=#b85450;" parent="1" vertex="1">
          <mxGeometry x="-10" y="745" width="100" height="40" as="geometry" />
        </mxCell>
        <mxCell id="qv-WrGeoa5kCR28B-ABI-7" value="ciclo" style="whiteSpace=wrap;html=1;align=center;fillColor=#d5e8d4;strokeColor=#82b366;" parent="1" vertex="1">
          <mxGeometry x="830" y="560" width="100" height="40" as="geometry" />
        </mxCell>
        <mxCell id="qv-WrGeoa5kCR28B-ABI-8" value="imparte" style="shape=rhombus;perimeter=rhombusPerimeter;whiteSpace=wrap;html=1;align=center;" parent="1" vertex="1">
          <mxGeometry x="830" y="680" width="120" height="60" as="geometry" />
        </mxCell>
        <mxCell id="qv-WrGeoa5kCR28B-ABI-10" value="tiene" style="shape=rhombus;perimeter=rhombusPerimeter;whiteSpace=wrap;html=1;align=center;" parent="1" vertex="1">
          <mxGeometry x="230" y="710" width="120" height="60" as="geometry" />
        </mxCell>
        <mxCell id="qv-WrGeoa5kCR28B-ABI-11" value="realiza" style="shape=rhombus;perimeter=rhombusPerimeter;whiteSpace=wrap;html=1;align=center;" parent="1" vertex="1">
          <mxGeometry x="530" y="570" width="120" height="60" as="geometry" />
        </mxCell>
        <mxCell id="qv-WrGeoa5kCR28B-ABI-18" value="" style="endArrow=none;html=1;rounded=0;exitX=0.5;exitY=1;exitDx=0;exitDy=0;" parent="1" source="qv-WrGeoa5kCR28B-ABI-10" edge="1">
          <mxGeometry relative="1" as="geometry">
            <mxPoint x="470" y="690" as="sourcePoint" />
            <mxPoint x="600" y="840" as="targetPoint" />
          </mxGeometry>
        </mxCell>
        <mxCell id="qv-WrGeoa5kCR28B-ABI-19" value="" style="endArrow=none;html=1;rounded=0;exitX=0.5;exitY=1;exitDx=0;exitDy=0;" parent="1" source="qv-WrGeoa5kCR28B-ABI-11" edge="1">
          <mxGeometry relative="1" as="geometry">
            <mxPoint x="300" y="760" as="sourcePoint" />
            <mxPoint x="600" y="840" as="targetPoint" />
          </mxGeometry>
        </mxCell>
        <mxCell id="qv-WrGeoa5kCR28B-ABI-20" value="" style="endArrow=none;html=1;rounded=0;exitX=0.5;exitY=1;exitDx=0;exitDy=0;entryX=1;entryY=0;entryDx=0;entryDy=0;" parent="1" source="qv-WrGeoa5kCR28B-ABI-8" target="qv-WrGeoa5kCR28B-ABI-1" edge="1">
          <mxGeometry relative="1" as="geometry">
            <mxPoint x="540" y="760" as="sourcePoint" />
            <mxPoint x="610" y="850" as="targetPoint" />
          </mxGeometry>
        </mxCell>
        <mxCell id="qv-WrGeoa5kCR28B-ABI-22" value="" style="endArrow=none;html=1;rounded=0;entryX=1;entryY=0.5;entryDx=0;entryDy=0;exitX=0;exitY=0.5;exitDx=0;exitDy=0;" parent="1" source="qv-WrGeoa5kCR28B-ABI-10" target="qv-WrGeoa5kCR28B-ABI-6" edge="1">
          <mxGeometry relative="1" as="geometry">
            <mxPoint x="-160" y="900" as="sourcePoint" />
            <mxPoint x="-470" y="1060" as="targetPoint" />
          </mxGeometry>
        </mxCell>
        <mxCell id="qv-WrGeoa5kCR28B-ABI-23" value="" style="endArrow=none;html=1;rounded=0;entryX=0.5;entryY=1;entryDx=0;entryDy=0;" parent="1" source="qv-WrGeoa5kCR28B-ABI-8" target="qv-WrGeoa5kCR28B-ABI-7" edge="1">
          <mxGeometry relative="1" as="geometry">
            <mxPoint x="1030" y="700" as="sourcePoint" />
            <mxPoint x="1030" y="610" as="targetPoint" />
          </mxGeometry>
        </mxCell>
        <mxCell id="qv-WrGeoa5kCR28B-ABI-24" value="" style="endArrow=none;html=1;rounded=0;entryX=0.5;entryY=1;entryDx=0;entryDy=0;exitX=0.5;exitY=0;exitDx=0;exitDy=0;" parent="1" source="qv-WrGeoa5kCR28B-ABI-11" target="qv-WrGeoa5kCR28B-ABI-4" edge="1">
          <mxGeometry relative="1" as="geometry">
            <mxPoint x="860" y="500" as="sourcePoint" />
            <mxPoint x="860" y="410" as="targetPoint" />
          </mxGeometry>
        </mxCell>
        <mxCell id="qv-WrGeoa5kCR28B-ABI-25" value="" style="endArrow=none;html=1;rounded=0;entryX=0.5;entryY=1;entryDx=0;entryDy=0;" parent="1" source="qv-WrGeoa5kCR28B-ABI-10" target="qv-WrGeoa5kCR28B-ABI-5" edge="1">
          <mxGeometry relative="1" as="geometry">
            <mxPoint x="540" y="700" as="sourcePoint" />
            <mxPoint x="540" y="610" as="targetPoint" />
          </mxGeometry>
        </mxCell>
        <mxCell id="qv-WrGeoa5kCR28B-ABI-27" value="nombre" style="ellipse;whiteSpace=wrap;html=1;align=center;fillColor=#fff2cc;strokeColor=#d6b656;" parent="1" vertex="1">
          <mxGeometry x="470" y="950" width="100" height="40" as="geometry" />
        </mxCell>
        <mxCell id="qv-WrGeoa5kCR28B-ABI-28" value="codigo_europeo_asignatura" style="ellipse;whiteSpace=wrap;html=1;align=center;fillColor=#fff2cc;strokeColor=#d6b656;" parent="1" vertex="1">
          <mxGeometry x="600" y="970" width="180" height="40" as="geometry" />
        </mxCell>
        <mxCell id="qv-WrGeoa5kCR28B-ABI-29" value="codigo_centro_asignatura" style="ellipse;whiteSpace=wrap;html=1;align=center;fontStyle=4;fillColor=#fff2cc;strokeColor=#d6b656;" parent="1" vertex="1">
          <mxGeometry x="740" y="920" width="170" height="40" as="geometry" />
        </mxCell>
        <mxCell id="qv-WrGeoa5kCR28B-ABI-30" value="" style="endArrow=none;html=1;rounded=0;exitX=0.979;exitY=0.653;exitDx=0;exitDy=0;exitPerimeter=0;" parent="1" source="qv-WrGeoa5kCR28B-ABI-27" edge="1">
          <mxGeometry relative="1" as="geometry">
            <mxPoint x="590" y="820" as="sourcePoint" />
            <mxPoint x="650" y="880" as="targetPoint" />
          </mxGeometry>
        </mxCell>
        <mxCell id="qv-WrGeoa5kCR28B-ABI-31" value="" style="endArrow=none;html=1;rounded=0;exitX=0.5;exitY=0;exitDx=0;exitDy=0;" parent="1" source="qv-WrGeoa5kCR28B-ABI-28" edge="1">
          <mxGeometry relative="1" as="geometry">
            <mxPoint x="558" y="956" as="sourcePoint" />
            <mxPoint x="650" y="880" as="targetPoint" />
          </mxGeometry>
        </mxCell>
        <mxCell id="qv-WrGeoa5kCR28B-ABI-32" value="" style="endArrow=none;html=1;rounded=0;exitX=0;exitY=0.5;exitDx=0;exitDy=0;entryX=0.5;entryY=1;entryDx=0;entryDy=0;" parent="1" source="qv-WrGeoa5kCR28B-ABI-29" target="qv-WrGeoa5kCR28B-ABI-1" edge="1">
          <mxGeometry relative="1" as="geometry">
            <mxPoint x="660" y="980" as="sourcePoint" />
            <mxPoint x="660" y="890" as="targetPoint" />
          </mxGeometry>
        </mxCell>
        <mxCell id="qv-WrGeoa5kCR28B-ABI-33" value="cod_aula" style="ellipse;whiteSpace=wrap;html=1;align=center;fontStyle=4;fillColor=#dae8fc;strokeColor=#6c8ebf;" parent="1" vertex="1">
          <mxGeometry x="80" y="560" width="100" height="40" as="geometry" />
        </mxCell>
        <mxCell id="qv-WrGeoa5kCR28B-ABI-35" value="metros" style="ellipse;whiteSpace=wrap;html=1;align=center;fillColor=#dae8fc;strokeColor=#6c8ebf;" parent="1" vertex="1">
          <mxGeometry x="320" y="440" width="100" height="40" as="geometry" />
        </mxCell>
        <mxCell id="qv-WrGeoa5kCR28B-ABI-36" value="num_aula" style="ellipse;whiteSpace=wrap;html=1;align=center;fillColor=#dae8fc;strokeColor=#6c8ebf;" parent="1" vertex="1">
          <mxGeometry x="190" y="440" width="100" height="40" as="geometry" />
        </mxCell>
        <mxCell id="qv-WrGeoa5kCR28B-ABI-37" value="nombre" style="ellipse;whiteSpace=wrap;html=1;align=center;fillColor=#dae8fc;strokeColor=#6c8ebf;" parent="1" vertex="1">
          <mxGeometry x="90" y="480" width="100" height="40" as="geometry" />
        </mxCell>
        <mxCell id="qv-WrGeoa5kCR28B-ABI-38" value="" style="endArrow=none;html=1;rounded=0;entryX=0;entryY=0.5;entryDx=0;entryDy=0;" parent="1" target="qv-WrGeoa5kCR28B-ABI-5" edge="1">
          <mxGeometry relative="1" as="geometry">
            <mxPoint x="180" y="580" as="sourcePoint" />
            <mxPoint x="310" y="580" as="targetPoint" />
          </mxGeometry>
        </mxCell>
        <mxCell id="qv-WrGeoa5kCR28B-ABI-39" value="" style="endArrow=none;html=1;rounded=0;entryX=0;entryY=0;entryDx=0;entryDy=0;exitX=1;exitY=0.5;exitDx=0;exitDy=0;" parent="1" source="qv-WrGeoa5kCR28B-ABI-37" target="qv-WrGeoa5kCR28B-ABI-5" edge="1">
          <mxGeometry relative="1" as="geometry">
            <mxPoint x="190" y="590" as="sourcePoint" />
            <mxPoint x="250" y="590" as="targetPoint" />
          </mxGeometry>
        </mxCell>
        <mxCell id="qv-WrGeoa5kCR28B-ABI-40" value="" style="endArrow=none;html=1;rounded=0;entryX=0.5;entryY=0;entryDx=0;entryDy=0;exitX=0.5;exitY=1;exitDx=0;exitDy=0;" parent="1" source="qv-WrGeoa5kCR28B-ABI-36" target="qv-WrGeoa5kCR28B-ABI-5" edge="1">
          <mxGeometry relative="1" as="geometry">
            <mxPoint x="200" y="510" as="sourcePoint" />
            <mxPoint x="250" y="570" as="targetPoint" />
          </mxGeometry>
        </mxCell>
        <mxCell id="qv-WrGeoa5kCR28B-ABI-41" value="" style="endArrow=none;html=1;rounded=0;entryX=0.5;entryY=0;entryDx=0;entryDy=0;exitX=0.5;exitY=1;exitDx=0;exitDy=0;" parent="1" source="qv-WrGeoa5kCR28B-ABI-35" target="qv-WrGeoa5kCR28B-ABI-5" edge="1">
          <mxGeometry relative="1" as="geometry">
            <mxPoint x="250" y="490" as="sourcePoint" />
            <mxPoint x="300" y="570" as="targetPoint" />
          </mxGeometry>
        </mxCell>
        <mxCell id="qv-WrGeoa5kCR28B-ABI-42" value="nombre" style="ellipse;whiteSpace=wrap;html=1;align=center;fillColor=#e1d5e7;strokeColor=#9673a6;" parent="1" vertex="1">
          <mxGeometry x="340" y="290" width="100" height="40" as="geometry" />
        </mxCell>
        <mxCell id="qv-WrGeoa5kCR28B-ABI-43" value="direccion" style="ellipse;whiteSpace=wrap;html=1;align=center;fillColor=#e1d5e7;strokeColor=#9673a6;" parent="1" vertex="1">
          <mxGeometry x="350" y="220" width="100" height="40" as="geometry" />
        </mxCell>
        <mxCell id="qv-WrGeoa5kCR28B-ABI-44" value="email" style="ellipse;whiteSpace=wrap;html=1;align=center;fillColor=#e1d5e7;strokeColor=#9673a6;" parent="1" vertex="1">
          <mxGeometry x="390" y="110" width="100" height="40" as="geometry" />
        </mxCell>
        <mxCell id="qv-WrGeoa5kCR28B-ABI-45" value="dni" style="ellipse;whiteSpace=wrap;html=1;align=center;fillColor=#e1d5e7;strokeColor=#9673a6;" parent="1" vertex="1">
          <mxGeometry x="700" y="110" width="100" height="40" as="geometry" />
        </mxCell>
        <mxCell id="qv-WrGeoa5kCR28B-ABI-46" value="telefono" style="ellipse;whiteSpace=wrap;html=1;align=center;fillColor=#e1d5e7;strokeColor=#9673a6;" parent="1" vertex="1">
          <mxGeometry x="360" y="170" width="100" height="40" as="geometry" />
        </mxCell>
        <mxCell id="qv-WrGeoa5kCR28B-ABI-47" value="num_ss" style="ellipse;whiteSpace=wrap;html=1;align=center;fillColor=#e1d5e7;strokeColor=#9673a6;" parent="1" vertex="1">
          <mxGeometry x="710" y="170" width="100" height="40" as="geometry" />
        </mxCell>
        <mxCell id="qv-WrGeoa5kCR28B-ABI-48" value="anyos_antiguedad" style="ellipse;whiteSpace=wrap;html=1;align=center;fillColor=#e1d5e7;strokeColor=#9673a6;" parent="1" vertex="1">
          <mxGeometry x="740" y="240" width="100" height="40" as="geometry" />
        </mxCell>
        <mxCell id="qv-WrGeoa5kCR28B-ABI-51" value="cod_interno_prof" style="ellipse;whiteSpace=wrap;html=1;align=center;fontStyle=4;fillColor=#e1d5e7;strokeColor=#9673a6;" parent="1" vertex="1">
          <mxGeometry x="730" y="300" width="100" height="40" as="geometry" />
        </mxCell>
        <mxCell id="qv-WrGeoa5kCR28B-ABI-52" value="" style="endArrow=none;html=1;rounded=0;entryX=0;entryY=0;entryDx=0;entryDy=0;exitX=1;exitY=0.5;exitDx=0;exitDy=0;" parent="1" source="qv-WrGeoa5kCR28B-ABI-42" target="qv-WrGeoa5kCR28B-ABI-4" edge="1">
          <mxGeometry relative="1" as="geometry">
            <mxPoint x="550" y="280" as="sourcePoint" />
            <mxPoint x="710" y="280" as="targetPoint" />
          </mxGeometry>
        </mxCell>
        <mxCell id="qv-WrGeoa5kCR28B-ABI-53" value="" style="endArrow=none;html=1;rounded=0;exitX=1;exitY=0.5;exitDx=0;exitDy=0;entryX=0;entryY=0;entryDx=0;entryDy=0;" parent="1" source="qv-WrGeoa5kCR28B-ABI-43" target="qv-WrGeoa5kCR28B-ABI-4" edge="1">
          <mxGeometry relative="1" as="geometry">
            <mxPoint x="450" y="320" as="sourcePoint" />
            <mxPoint x="590" y="360" as="targetPoint" />
          </mxGeometry>
        </mxCell>
        <mxCell id="qv-WrGeoa5kCR28B-ABI-54" value="" style="endArrow=none;html=1;rounded=0;exitX=1;exitY=0.5;exitDx=0;exitDy=0;entryX=0.25;entryY=0;entryDx=0;entryDy=0;" parent="1" source="qv-WrGeoa5kCR28B-ABI-46" target="qv-WrGeoa5kCR28B-ABI-4" edge="1">
          <mxGeometry relative="1" as="geometry">
            <mxPoint x="460" y="250" as="sourcePoint" />
            <mxPoint x="600" y="370" as="targetPoint" />
          </mxGeometry>
        </mxCell>
        <mxCell id="qv-WrGeoa5kCR28B-ABI-55" value="" style="endArrow=none;html=1;rounded=0;exitX=1;exitY=1;exitDx=0;exitDy=0;" parent="1" source="qv-WrGeoa5kCR28B-ABI-44" edge="1">
          <mxGeometry relative="1" as="geometry">
            <mxPoint x="500" y="190" as="sourcePoint" />
            <mxPoint x="590" y="360" as="targetPoint" />
          </mxGeometry>
        </mxCell>
        <mxCell id="qv-WrGeoa5kCR28B-ABI-56" value="" style="endArrow=none;html=1;rounded=0;exitX=0.224;exitY=0.906;exitDx=0;exitDy=0;exitPerimeter=0;entryX=0.5;entryY=0;entryDx=0;entryDy=0;" parent="1" source="qv-WrGeoa5kCR28B-ABI-45" target="qv-WrGeoa5kCR28B-ABI-4" edge="1">
          <mxGeometry relative="1" as="geometry">
            <mxPoint x="575" y="144" as="sourcePoint" />
            <mxPoint x="600" y="370" as="targetPoint" />
          </mxGeometry>
        </mxCell>
        <mxCell id="qv-WrGeoa5kCR28B-ABI-57" value="" style="endArrow=none;html=1;rounded=0;exitX=0;exitY=0.5;exitDx=0;exitDy=0;entryX=0.75;entryY=0;entryDx=0;entryDy=0;" parent="1" source="qv-WrGeoa5kCR28B-ABI-47" target="qv-WrGeoa5kCR28B-ABI-4" edge="1">
          <mxGeometry relative="1" as="geometry">
            <mxPoint x="652" y="146" as="sourcePoint" />
            <mxPoint x="590" y="360" as="targetPoint" />
          </mxGeometry>
        </mxCell>
        <mxCell id="qv-WrGeoa5kCR28B-ABI-58" value="" style="endArrow=none;html=1;rounded=0;exitX=0;exitY=0.5;exitDx=0;exitDy=0;entryX=1;entryY=0;entryDx=0;entryDy=0;" parent="1" source="qv-WrGeoa5kCR28B-ABI-48" target="qv-WrGeoa5kCR28B-ABI-4" edge="1">
          <mxGeometry relative="1" as="geometry">
            <mxPoint x="720" y="200" as="sourcePoint" />
            <mxPoint x="600" y="370" as="targetPoint" />
          </mxGeometry>
        </mxCell>
        <mxCell id="qv-WrGeoa5kCR28B-ABI-59" value="" style="endArrow=none;html=1;rounded=0;exitX=0;exitY=0.5;exitDx=0;exitDy=0;entryX=1;entryY=0;entryDx=0;entryDy=0;" parent="1" source="qv-WrGeoa5kCR28B-ABI-51" target="qv-WrGeoa5kCR28B-ABI-4" edge="1">
          <mxGeometry relative="1" as="geometry">
            <mxPoint x="750" y="270" as="sourcePoint" />
            <mxPoint x="650" y="370" as="targetPoint" />
          </mxGeometry>
        </mxCell>
        <mxCell id="qv-WrGeoa5kCR28B-ABI-60" value="nombre" style="ellipse;whiteSpace=wrap;html=1;align=center;fillColor=#d5e8d4;strokeColor=#82b366;" parent="1" vertex="1">
          <mxGeometry x="700" y="520" width="100" height="40" as="geometry" />
        </mxCell>
        <mxCell id="qv-WrGeoa5kCR28B-ABI-61" value="tipo" style="ellipse;whiteSpace=wrap;html=1;align=center;fillColor=#d5e8d4;strokeColor=#82b366;" parent="1" vertex="1">
          <mxGeometry x="830" y="470" width="100" height="40" as="geometry" />
        </mxCell>
        <mxCell id="qv-WrGeoa5kCR28B-ABI-62" value="cod_ciclo" style="ellipse;whiteSpace=wrap;html=1;align=center;fontStyle=4;fillColor=#d5e8d4;strokeColor=#82b366;" parent="1" vertex="1">
          <mxGeometry x="940" y="520" width="100" height="40" as="geometry" />
        </mxCell>
        <mxCell id="qv-WrGeoa5kCR28B-ABI-63" value="grado_medio" style="ellipse;whiteSpace=wrap;html=1;align=center;fillColor=#d5e8d4;strokeColor=#82b366;" parent="1" vertex="1">
          <mxGeometry x="700" y="420" width="100" height="40" as="geometry" />
        </mxCell>
        <mxCell id="qv-WrGeoa5kCR28B-ABI-64" value="grado_superior" style="ellipse;whiteSpace=wrap;html=1;align=center;fillColor=#d5e8d4;strokeColor=#82b366;" parent="1" vertex="1">
          <mxGeometry x="820" y="380" width="100" height="40" as="geometry" />
        </mxCell>
        <mxCell id="qv-WrGeoa5kCR28B-ABI-65" value="iniciacion_profesinal" style="ellipse;whiteSpace=wrap;html=1;align=center;fillColor=#d5e8d4;strokeColor=#82b366;" parent="1" vertex="1">
          <mxGeometry x="920" y="420" width="120" height="40" as="geometry" />
        </mxCell>
        <mxCell id="qv-WrGeoa5kCR28B-ABI-67" value="" style="endArrow=none;html=1;rounded=0;exitX=1;exitY=0.5;exitDx=0;exitDy=0;entryX=0.5;entryY=0;entryDx=0;entryDy=0;" parent="1" source="qv-WrGeoa5kCR28B-ABI-63" target="qv-WrGeoa5kCR28B-ABI-61" edge="1">
          <mxGeometry relative="1" as="geometry">
            <mxPoint x="730" y="580" as="sourcePoint" />
            <mxPoint x="890" y="580" as="targetPoint" />
          </mxGeometry>
        </mxCell>
        <mxCell id="qv-WrGeoa5kCR28B-ABI-68" value="" style="endArrow=none;html=1;rounded=0;exitX=0.5;exitY=1;exitDx=0;exitDy=0;entryX=0.5;entryY=0;entryDx=0;entryDy=0;" parent="1" source="qv-WrGeoa5kCR28B-ABI-64" target="qv-WrGeoa5kCR28B-ABI-61" edge="1">
          <mxGeometry relative="1" as="geometry">
            <mxPoint x="810" y="450" as="sourcePoint" />
            <mxPoint x="870" y="470" as="targetPoint" />
          </mxGeometry>
        </mxCell>
        <mxCell id="qv-WrGeoa5kCR28B-ABI-69" value="" style="endArrow=none;html=1;rounded=0;exitX=0;exitY=0.5;exitDx=0;exitDy=0;entryX=0.5;entryY=0;entryDx=0;entryDy=0;" parent="1" source="qv-WrGeoa5kCR28B-ABI-65" target="qv-WrGeoa5kCR28B-ABI-61" edge="1">
          <mxGeometry relative="1" as="geometry">
            <mxPoint x="880" y="430" as="sourcePoint" />
            <mxPoint x="860" y="460" as="targetPoint" />
          </mxGeometry>
        </mxCell>
        <mxCell id="qv-WrGeoa5kCR28B-ABI-70" value="" style="endArrow=none;html=1;rounded=0;exitX=0;exitY=0.5;exitDx=0;exitDy=0;entryX=0.5;entryY=0;entryDx=0;entryDy=0;" parent="1" source="qv-WrGeoa5kCR28B-ABI-62" target="qv-WrGeoa5kCR28B-ABI-7" edge="1">
          <mxGeometry relative="1" as="geometry">
            <mxPoint x="930" y="450" as="sourcePoint" />
            <mxPoint x="870" y="470" as="targetPoint" />
          </mxGeometry>
        </mxCell>
        <mxCell id="qv-WrGeoa5kCR28B-ABI-71" value="" style="endArrow=none;html=1;rounded=0;exitX=0.5;exitY=1;exitDx=0;exitDy=0;entryX=0.5;entryY=0;entryDx=0;entryDy=0;" parent="1" source="qv-WrGeoa5kCR28B-ABI-61" target="qv-WrGeoa5kCR28B-ABI-7" edge="1">
          <mxGeometry relative="1" as="geometry">
            <mxPoint x="950" y="550" as="sourcePoint" />
            <mxPoint x="890" y="560" as="targetPoint" />
          </mxGeometry>
        </mxCell>
        <mxCell id="qv-WrGeoa5kCR28B-ABI-72" value="" style="endArrow=none;html=1;rounded=0;exitX=1;exitY=0.5;exitDx=0;exitDy=0;entryX=0.5;entryY=0;entryDx=0;entryDy=0;" parent="1" source="qv-WrGeoa5kCR28B-ABI-60" target="qv-WrGeoa5kCR28B-ABI-7" edge="1">
          <mxGeometry relative="1" as="geometry">
            <mxPoint x="870" y="510" as="sourcePoint" />
            <mxPoint x="870" y="570" as="targetPoint" />
          </mxGeometry>
        </mxCell>
        <mxCell id="qv-WrGeoa5kCR28B-ABI-73" value="hora" style="ellipse;whiteSpace=wrap;html=1;align=center;fillColor=#f8cecc;strokeColor=#b85450;" parent="1" vertex="1">
          <mxGeometry x="-170" y="655" width="100" height="40" as="geometry" />
        </mxCell>
        <mxCell id="qv-WrGeoa5kCR28B-ABI-74" value="dia" style="ellipse;whiteSpace=wrap;html=1;align=center;fillColor=#f8cecc;strokeColor=#b85450;" parent="1" vertex="1">
          <mxGeometry x="-170" y="725" width="100" height="40" as="geometry" />
        </mxCell>
        <mxCell id="qv-WrGeoa5kCR28B-ABI-75" value="id_horario" style="ellipse;whiteSpace=wrap;html=1;align=center;fontStyle=4;fillColor=#f8cecc;strokeColor=#b85450;" parent="1" vertex="1">
          <mxGeometry x="-160" y="785" width="100" height="40" as="geometry" />
        </mxCell>
        <mxCell id="qv-WrGeoa5kCR28B-ABI-76" value="" style="endArrow=none;html=1;rounded=0;entryX=1;entryY=0.5;entryDx=0;entryDy=0;exitX=0;exitY=0.5;exitDx=0;exitDy=0;" parent="1" source="qv-WrGeoa5kCR28B-ABI-6" target="qv-WrGeoa5kCR28B-ABI-73" edge="1">
          <mxGeometry relative="1" as="geometry">
            <mxPoint x="50" y="885" as="sourcePoint" />
            <mxPoint x="50" y="795" as="targetPoint" />
          </mxGeometry>
        </mxCell>
        <mxCell id="qv-WrGeoa5kCR28B-ABI-77" value="" style="endArrow=none;html=1;rounded=0;entryX=1;entryY=0.5;entryDx=0;entryDy=0;exitX=0;exitY=0.5;exitDx=0;exitDy=0;" parent="1" source="qv-WrGeoa5kCR28B-ABI-6" target="qv-WrGeoa5kCR28B-ABI-74" edge="1">
          <mxGeometry relative="1" as="geometry">
            <mxPoint x="50" y="755" as="sourcePoint" />
            <mxPoint x="35" y="689" as="targetPoint" />
          </mxGeometry>
        </mxCell>
        <mxCell id="qv-WrGeoa5kCR28B-ABI-78" value="" style="endArrow=none;html=1;rounded=0;entryX=1;entryY=0.5;entryDx=0;entryDy=0;exitX=0;exitY=0.5;exitDx=0;exitDy=0;" parent="1" target="qv-WrGeoa5kCR28B-ABI-75" edge="1" source="qv-WrGeoa5kCR28B-ABI-6">
          <mxGeometry relative="1" as="geometry">
            <mxPoint x="40" y="745" as="sourcePoint" />
            <mxPoint x="105" y="655" as="targetPoint" />
          </mxGeometry>
        </mxCell>
        <mxCell id="qv-WrGeoa5kCR28B-ABI-79" value="curso" style="ellipse;whiteSpace=wrap;html=1;align=center;" parent="1" vertex="1">
          <mxGeometry x="680" y="690" width="100" height="40" as="geometry" />
        </mxCell>
        <mxCell id="qv-WrGeoa5kCR28B-ABI-80" value="" style="endArrow=none;html=1;rounded=0;exitX=1;exitY=0.5;exitDx=0;exitDy=0;entryX=0;entryY=0.5;entryDx=0;entryDy=0;" parent="1" source="qv-WrGeoa5kCR28B-ABI-79" target="qv-WrGeoa5kCR28B-ABI-8" edge="1">
          <mxGeometry relative="1" as="geometry">
            <mxPoint x="570" y="570" as="sourcePoint" />
            <mxPoint x="730" y="570" as="targetPoint" />
          </mxGeometry>
        </mxCell>
        <mxCell id="qv-WrGeoa5kCR28B-ABI-81" value="ejerce" style="shape=rhombus;perimeter=rhombusPerimeter;whiteSpace=wrap;html=1;align=center;" parent="1" vertex="1">
          <mxGeometry x="530" y="140" width="120" height="60" as="geometry" />
        </mxCell>
        <mxCell id="qv-WrGeoa5kCR28B-ABI-83" value="tutor" style="whiteSpace=wrap;html=1;align=center;fillColor=#ffe6cc;strokeColor=#d79b00;" parent="1" vertex="1">
          <mxGeometry x="540" width="100" height="40" as="geometry" />
        </mxCell>
        <mxCell id="qv-WrGeoa5kCR28B-ABI-85" value="id_tutor" style="ellipse;whiteSpace=wrap;html=1;align=center;fontStyle=4;fillColor=#ffe6cc;strokeColor=#d79b00;" parent="1" vertex="1">
          <mxGeometry x="640" y="-80" width="100" height="40" as="geometry" />
        </mxCell>
        <mxCell id="qv-WrGeoa5kCR28B-ABI-86" value="anyos_antiguedad_tutor" style="ellipse;whiteSpace=wrap;html=1;align=center;fillColor=#ffe6cc;strokeColor=#d79b00;" parent="1" vertex="1">
          <mxGeometry x="340" y="-80" width="190" height="40" as="geometry" />
        </mxCell>
        <mxCell id="qv-WrGeoa5kCR28B-ABI-87" value="" style="endArrow=none;html=1;rounded=0;exitX=1;exitY=0.5;exitDx=0;exitDy=0;entryX=0.5;entryY=0;entryDx=0;entryDy=0;" parent="1" source="qv-WrGeoa5kCR28B-ABI-86" target="qv-WrGeoa5kCR28B-ABI-83" edge="1">
          <mxGeometry relative="1" as="geometry">
            <mxPoint x="400" y="60" as="sourcePoint" />
            <mxPoint x="560" y="60" as="targetPoint" />
          </mxGeometry>
        </mxCell>
        <mxCell id="qv-WrGeoa5kCR28B-ABI-88" value="" style="endArrow=none;html=1;rounded=0;exitX=0;exitY=0.5;exitDx=0;exitDy=0;" parent="1" source="qv-WrGeoa5kCR28B-ABI-85" edge="1">
          <mxGeometry relative="1" as="geometry">
            <mxPoint x="515" y="-50" as="sourcePoint" />
            <mxPoint x="590" as="targetPoint" />
          </mxGeometry>
        </mxCell>
        <mxCell id="qv-WrGeoa5kCR28B-ABI-89" value="" style="endArrow=none;html=1;rounded=0;exitX=0.5;exitY=0;exitDx=0;exitDy=0;entryX=0.5;entryY=1;entryDx=0;entryDy=0;" parent="1" source="qv-WrGeoa5kCR28B-ABI-81" target="qv-WrGeoa5kCR28B-ABI-83" edge="1">
          <mxGeometry relative="1" as="geometry">
            <mxPoint x="670" y="-50" as="sourcePoint" />
            <mxPoint x="610" y="10" as="targetPoint" />
          </mxGeometry>
        </mxCell>
        <mxCell id="qv-WrGeoa5kCR28B-ABI-90" value="" style="endArrow=none;html=1;rounded=0;exitX=0.5;exitY=1;exitDx=0;exitDy=0;entryX=0.5;entryY=0;entryDx=0;entryDy=0;" parent="1" source="qv-WrGeoa5kCR28B-ABI-81" target="qv-WrGeoa5kCR28B-ABI-4" edge="1">
          <mxGeometry relative="1" as="geometry">
            <mxPoint x="590" y="70" as="sourcePoint" />
            <mxPoint x="590" y="-30" as="targetPoint" />
          </mxGeometry>
        </mxCell>
        <mxCell id="qv-WrGeoa5kCR28B-ABI-96" value="(1,N)" style="text;html=1;strokeColor=none;fillColor=none;align=center;verticalAlign=middle;whiteSpace=wrap;rounded=0;" parent="1" vertex="1">
          <mxGeometry x="290" y="640" width="60" height="30" as="geometry" />
        </mxCell>
        <mxCell id="qv-WrGeoa5kCR28B-ABI-97" value="(0,N)" style="text;html=1;strokeColor=none;fillColor=none;align=center;verticalAlign=middle;whiteSpace=wrap;rounded=0;" parent="1" vertex="1">
          <mxGeometry x="420" y="770" width="60" height="30" as="geometry" />
        </mxCell>
        <mxCell id="qv-WrGeoa5kCR28B-ABI-99" value="(1,N)" style="text;html=1;strokeColor=none;fillColor=none;align=center;verticalAlign=middle;whiteSpace=wrap;rounded=0;" parent="1" vertex="1">
          <mxGeometry x="590" y="460" width="60" height="30" as="geometry" />
        </mxCell>
        <mxCell id="qv-WrGeoa5kCR28B-ABI-100" value="(1,N)" style="text;html=1;strokeColor=none;fillColor=none;align=center;verticalAlign=middle;whiteSpace=wrap;rounded=0;" parent="1" vertex="1">
          <mxGeometry x="590" y="710" width="60" height="30" as="geometry" />
        </mxCell>
        <mxCell id="qv-WrGeoa5kCR28B-ABI-101" value="(1,1)" style="text;html=1;strokeColor=none;fillColor=none;align=center;verticalAlign=middle;whiteSpace=wrap;rounded=0;" parent="1" vertex="1">
          <mxGeometry x="590" y="70" width="60" height="30" as="geometry" />
        </mxCell>
        <mxCell id="qv-WrGeoa5kCR28B-ABI-102" value="(1,N)" style="text;html=1;strokeColor=none;fillColor=none;align=center;verticalAlign=middle;whiteSpace=wrap;rounded=0;" parent="1" vertex="1">
          <mxGeometry x="580" y="230" width="60" height="30" as="geometry" />
        </mxCell>
        <mxCell id="qv-WrGeoa5kCR28B-ABI-103" value="(0,N)" style="text;html=1;strokeColor=none;fillColor=none;align=center;verticalAlign=middle;whiteSpace=wrap;rounded=0;" parent="1" vertex="1">
          <mxGeometry x="890" y="620" width="60" height="30" as="geometry" />
        </mxCell>
        <mxCell id="qv-WrGeoa5kCR28B-ABI-104" value="(1,N)" style="text;html=1;strokeColor=none;fillColor=none;align=center;verticalAlign=middle;whiteSpace=wrap;rounded=0;" parent="1" vertex="1">
          <mxGeometry x="830" y="760" width="60" height="30" as="geometry" />
        </mxCell>
        <mxCell id="qv-WrGeoa5kCR28B-ABI-105" value="(1,N)" style="text;html=1;strokeColor=none;fillColor=none;align=center;verticalAlign=middle;whiteSpace=wrap;rounded=0;" parent="1" vertex="1">
          <mxGeometry x="130" y="710" width="60" height="30" as="geometry" />
        </mxCell>
        <mxCell id="dibCTNucN-Np6ihlL2UI-1" value="es_requisito" style="rhombus;whiteSpace=wrap;html=1;" vertex="1" parent="1">
          <mxGeometry x="360" y="850" width="80" height="80" as="geometry" />
        </mxCell>
        <mxCell id="dibCTNucN-Np6ihlL2UI-2" value="" style="endArrow=none;html=1;rounded=0;entryX=0;entryY=0.5;entryDx=0;entryDy=0;exitX=0.5;exitY=0;exitDx=0;exitDy=0;" edge="1" parent="1" source="dibCTNucN-Np6ihlL2UI-1" target="qv-WrGeoa5kCR28B-ABI-1">
          <mxGeometry width="50" height="50" relative="1" as="geometry">
            <mxPoint x="510" y="910" as="sourcePoint" />
            <mxPoint x="560" y="860" as="targetPoint" />
          </mxGeometry>
        </mxCell>
        <mxCell id="dibCTNucN-Np6ihlL2UI-3" value="" style="endArrow=none;html=1;rounded=0;entryX=0;entryY=0.5;entryDx=0;entryDy=0;exitX=0.5;exitY=1;exitDx=0;exitDy=0;" edge="1" parent="1" source="dibCTNucN-Np6ihlL2UI-1" target="qv-WrGeoa5kCR28B-ABI-1">
          <mxGeometry width="50" height="50" relative="1" as="geometry">
            <mxPoint x="410" y="860" as="sourcePoint" />
            <mxPoint x="610" y="870" as="targetPoint" />
          </mxGeometry>
        </mxCell>
        <mxCell id="dibCTNucN-Np6ihlL2UI-5" value="(0,N)" style="text;html=1;strokeColor=none;fillColor=none;align=center;verticalAlign=middle;whiteSpace=wrap;rounded=0;" vertex="1" parent="1">
          <mxGeometry x="425" y="830" width="60" height="30" as="geometry" />
        </mxCell>
        <mxCell id="dibCTNucN-Np6ihlL2UI-6" value="(0,N)" style="text;html=1;strokeColor=none;fillColor=none;align=center;verticalAlign=middle;whiteSpace=wrap;rounded=0;" vertex="1" parent="1">
          <mxGeometry x="440" y="900" width="60" height="30" as="geometry" />
        </mxCell>
      </root>
    </mxGraphModel>
  </diagram>
</mxfile>
